# xmcd CD database file
#
# Track frame offsets:
#	165
#	27337
#	49012
#	70792
#	94737
#	109680
#	134372
#	161157
#	181797
#	202662
#
# Disc length: 2991 seconds
#
# Revision: 4
# Processed by: cddbd v1.5.1PL2 Copyright (c) Steve Scherf et al.
# Submitted via: CDex 1.51
#
DISCID=7d0bad0a
DTITLE=Lex de Azevedo - Moab
DYEAR=1993
DGENRE=New Age
TTITLE0=Moab
TTITLE1=A Simple Song
TTITLE2=San Juan
TTITLE3=Slickrock
TTITLE4=Bittersweet
TTITLE5=Goblin Valley
TTITLE6=Night Of The Iguana
TTITLE7=Escalante
TTITLE8=Islands In The Sky
TTITLE9=Outside...
EXTD=YEAR: 1993
EXTT0=
EXTT1=
EXTT2=
EXTT3=
EXTT4=
EXTT5=
EXTT6=
EXTT7=
EXTT8=
EXTT9=
PLAYORDER=
